# xmcd
#
# Track frame offsets: 
#        150
#        2093
#        15915
#        25129
#        27704
#        38436
#        50417
#        52254
#        69710
#        70922
#        79582
#        96593
#        106440
#        115826
#        126653
#        140376
#        143512
#        149702
#        161565
#        168544
#        172595
#        186336
#        201792
#        206497
#        215912
#        218248
#        232479
#        242048
#        249878
#        261652
#        278093
#
# Disc length: 3764 seconds
#
# Revision: 0
# Processed by: cddbd v1.5.2PL0 Copyright (c) Steve Scherf et al.
# Submitted via: ExactAudioCopy v1.2
#
DISCID=dd0eb21f
DTITLE=Hayes McMullen - Everyday Seem Like Murder Here
DYEAR=2017
DGENRE=Blues
TTITLE0=This Is Hayes McMullan (Story)
TTITLE1=Fast Old Train
TTITLE2=Look-a Here Woman Blues
TTITLE3=Back Water Blues (False Start)
TTITLE4=Goin' Away Mama Blues
TTITLE5=Every Day In The Week
TTITLE6=Playing A Juke With Patton (Story)
TTITLE7=Hurry Sundown
TTITLE8=How'd Your Brother Die? (Story)
TTITLE9=Sugar
TTITLE10=Smoke Like Lightning
TTITLE11=Goin' Where The Chilly Winds Don't Blow
TTITLE12=The High Water (Story)
TTITLE13=Spider On The Wall Blues
TTITLE14=Spanish Fandango
TTITLE15=Charley, He Was Whisky Headed (Story)
TTITLE16=Hitch Up My Pony
TTITLE17=Every Day Seem Like Murder Here
TTITLE18=Who Gonna Be Your Baby?
TTITLE19=Discussons On A Barrelhouse (Story)
TTITLE20=Gonna Get Me A Woman (aka Sunday Woman)
TTITLE21=Kansas City Blues
TTITLE22=Patton Was A Racket Man (Story)
TTITLE23=Bo Weevil Blues
TTITLE24=Singing to the Children (Story)
TTITLE25='Bout A Spoonful, Takes 1 and 2
TTITLE26=No Triflin' Kid
TTITLE27=Delta Walk
TTITLE28=Roll And Tumble
TTITLE29=I'm Goin', Don't You Wanna Go?
TTITLE30=Patton's Death Hearsay (Story)
EXTD=
EXTT0=
EXTT1=
EXTT2=
EXTT3=
EXTT4=
EXTT5=
EXTT6=
EXTT7=
EXTT8=
EXTT9=
EXTT10=
EXTT11=
EXTT12=
EXTT13=
EXTT14=
EXTT15=
EXTT16=
EXTT17=
EXTT18=
EXTT19=
EXTT20=
EXTT21=
EXTT22=
EXTT23=
EXTT24=
EXTT25=
EXTT26=
EXTT27=
EXTT28=
EXTT29=
EXTT30=
PLAYORDER=
